# xmcd
#
# Track frame offsets: 
#        182
#        10567
#        22852
#        34590
#        47205
#        58027
#        68805
#        80135
#        91767
#        101597
#        111900
#        124110
#        134070
#        144642
#        157657
#        169185
#        179207
#        189345
#        199265
#        209965
#        221002
#        232715
#        243427
#        256112
#
# Disc length: 3576 seconds
#
# Revision: 0
# Processed by: cddbd v1.5.2PL0 Copyright (c) Steve Scherf et al.
# Submitted via: ExactAudioCopy v1.3
#
DISCID=550df618
DTITLE=Junior Wells, Earl Hooker - Messin' With the Kid
DYEAR=1990
DGENRE=Rhythm and Blues
TTITLE0=Messin' With The Kid
TTITLE1=I'm A Stranger
TTITLE2=Little By Little
TTITLE3=Blue Guitar
TTITLE4=Come On In This House
TTITLE5=Cha Cha Cha In Blue
TTITLE6=Prison Bars All Around Me
TTITLE7=Galloping Horses A Lazy Mule
TTITLE8=Love Me
TTITLE9=Blues In D Natural
TTITLE10=It Hurts Me Too
TTITLE11=Rockin' With The Kid
TTITLE12=The Things I'd Do for You
TTITLE13=I Could Cry
TTITLE14=Universal Rock
TTITLE15=Lovey Dovey Lovey One
TTITLE16=So Tired
TTITLE17=Rockin' Wild
TTITLE18=I Need Me A Car
TTITLE19=You Sure Look Good To Me
TTITLE20=Calling Alll Blues
TTITLE21=You Don't Care
TTITLE22=These Cotton-Pickin' Blues
TTITLE23=Two Headed Woman
EXTD=
EXTT0=
EXTT1=
EXTT2=
EXTT3=
EXTT4=
EXTT5=
EXTT6=
EXTT7=
EXTT8=
EXTT9=
EXTT10=
EXTT11=
EXTT12=
EXTT13=
EXTT14=
EXTT15=
EXTT16=
EXTT17=
EXTT18=
EXTT19=
EXTT20=
EXTT21=
EXTT22=
EXTT23=
PLAYORDER=
